<?xml version="1.0" encoding="UTF-8"?>
<svg xmlns="http://www.w3.org/2000/svg" viewBox="0 0 920 200" width="920" height="200">
<style><![CDATA[
  .t { font: 700 15px sans-serif; fill: #1a1a2e; text-anchor: middle; }
  .st { font: 11px sans-serif; fill: #666; text-anchor: middle; }
  .lb { font: 600 11px sans-serif; fill: #222; text-anchor: middle; }
  .dt { font: 10px sans-serif; fill: #555; text-anchor: middle; }
  .an { font: 9px sans-serif; fill: #2563eb; text-anchor: middle; }
  .arr { stroke: #666; stroke-width: 1.5; fill: none; marker-end: url(#r1ba); }
  .arr-b { stroke: #4A90D9; stroke-width: 1.5; fill: none; marker-end: url(#r1bab); }
  .arr-g { stroke: #27AE60; stroke-width: 1.5; fill: none; marker-end: url(#r1bag); }
  .arr-o { stroke: #E67E22; stroke-width: 1.5; fill: none; marker-end: url(#r1bao); }
]]></style>
<defs>
  <marker id="r1ba" markerWidth="7" markerHeight="7" refX="6" refY="3.5" orient="auto"><path d="M0,0 L7,3.5 L0,7 Z" fill="#666"/></marker>
  <marker id="r1bab" markerWidth="7" markerHeight="7" refX="6" refY="3.5" orient="auto"><path d="M0,0 L7,3.5 L0,7 Z" fill="#4A90D9"/></marker>
  <marker id="r1bag" markerWidth="7" markerHeight="7" refX="6" refY="3.5" orient="auto"><path d="M0,0 L7,3.5 L0,7 Z" fill="#27AE60"/></marker>
  <marker id="r1bao" markerWidth="7" markerHeight="7" refX="6" refY="3.5" orient="auto"><path d="M0,0 L7,3.5 L0,7 Z" fill="#E67E22"/></marker>
</defs>
<text x="460" y="22" class="t" text-anchor="middle">DeepSeek-R1 训练 pipeline 分叉</text><rect x="70" y="64" width="180" height="48" rx="6" fill="#eef4fc" stroke="#4A90D9" stroke-width="1.5"/><text x="160" y="88" class="lb" text-anchor="middle">DeepSeek-V3 Base</text><polyline points="250,88 340,88 340,58 620,58 620,66" class="arr-g" fill="none"/><text x="480" y="50" class="an" text-anchor="middle">纯 RL</text><rect x="510" y="64" width="220" height="48" rx="6" fill="#f0faf0" stroke="#27AE60" stroke-width="1.5"/><text x="620" y="88" class="lb" text-anchor="middle">DeepSeek-R1-Zero</text><polyline points="250,88 340,88 340,118 620,118 620,110" class="arr-o" fill="none"/><text x="420" y="128" class="an" text-anchor="middle">冷启动 SFT -&gt; RL -&gt; 拒绝采样 SFT -&gt; RL</text><rect x="520" y="124" width="200" height="48" rx="6" fill="#f0faf0" stroke="#27AE60" stroke-width="1.5"/><text x="620" y="148" class="lb" text-anchor="middle">DeepSeek-R1</text></svg>